<svg width="200" height="240" viewBox="0 0 200 240" fill="none" xmlns="http://www.w3.org/2000/svg">
  <!-- Saucer -->
  <ellipse cx="100" cy="170" rx="50" ry="8" fill="#d1d5db"/>
  <ellipse cx="100" cy="170" rx="45" ry="6" fill="#e5e7eb"/>

  <!-- Cup -->
  <path d="M 70 170 L 75 110 Q 75 100 85 100 L 115 100 Q 125 100 125 110 L 130 170 Z" fill="#fafafa" stroke="#d1d5db" stroke-width="2"/>

  <!-- Coffee -->
  <ellipse cx="100" cy="120" rx="23" ry="5" fill="#8b4513"/>

  <!-- Steam -->
  <path d="M 85 95 Q 83 85 85 75" stroke="#d1d5db" stroke-width="2.5" stroke-linecap="round" fill="none" opacity="0.7"/>
  <path d="M 100 90 Q 98 80 100 70" stroke="#d1d5db" stroke-width="2.5" stroke-linecap="round" fill="none" opacity="0.7"/>
  <path d="M 115 95 Q 117 85 115 75" stroke="#d1d5db" stroke-width="2.5" stroke-linecap="round" fill="none" opacity="0.7"/>

  <!-- Handle -->
  <path d="M 130 125 Q 145 125 145 140 Q 145 155 130 155" stroke="#d1d5db" stroke-width="3" fill="none" stroke-linecap="round"/>
  <path d="M 130 125 Q 142 125 142 140 Q 142 155 130 155" stroke="#fafafa" stroke-width="2" fill="none" stroke-linecap="round"/>

  <!-- Cup rim shadow -->
  <ellipse cx="100" cy="110" rx="25" ry="4" fill="#000000" opacity="0.1"/>
</svg>
