<?xml version="1.0" standalone="no"?>
<svg xmlns="http://www.w3.org/2000/svg" width="1024" height="1024"><defs><clipPath id="clip-path-dot-color"><path d="M 68 308v 24h 12a 12 12, 0, 0, 0, 0 -24" transform="rotate(180,80,320)"/><path d="M 68 356v 24h 24v -12a 12 12, 0, 0, 0, -12 -12" transform="rotate(-90,80,368)"/><rect x="68" y="380" width="24" height="24" transform="rotate(0,80,392)"/><rect x="68" y="404" width="24" height="24" transform="rotate(0,80,416)"/><path d="M 68 428v 24h 12a 12 12, 0, 0, 0, 0 -24" transform="rotate(90,80,440)"/><path d="M 68 548v 24h 12a 12 12, 0, 0, 0, 0 -24" transform="rotate(180,80,560)"/><path d="M 68 620v 24h 12a 12 12, 0, 0, 0, 0 -24" transform="rotate(-90,80,632)"/><rect x="68" y="644" width="24" height="24" transform="rotate(0,80,656)"/><rect x="68" y="668" width="24" height="24" transform="rotate(0,80,680)"/><path d="M 68 692v 24h 24v -12a 12 12, 0, 0, 0, -12 -12" transform="rotate(180,80,704)"/><rect x="92" y="308" width="24" height="24" transform="rotate(0,104,320)"/><path d="M 92 356v 24h 12a 12 12, 0, 0, 0, 0 -24" transform="rotate(0,104,368)"/><rect x="92" y="404" width="24" height="24" transform="rotate(0,104,416)"/><path d="M 92 452v 24h 12a 12 12, 0, 0, 0, 0 -24" transform="rotate(180,104,464)"/><path d="M 92 500v 24h 12a 12 12, 0, 0, 0, 0 -24" transform="rotate(-90,104,512)"/><rect x="92" y="524" width="24" height="24" transform="rotate(0,104,536)"/><rect x="92" y="548" width="24" height="24" transform="rotate(0,104,560)"/><rect x="92" y="572" width="24" height="24" transform="rotate(0,104,584)"/><path d="M 92 596v 24h 24v -12a 12 12, 0, 0, 0, -12 -12" transform="rotate(180,104,608)"/><rect x="92" y="644" width="24" height="24" transform="rotate(0,104,656)"/><rect x="92" y="668" width="24" height="24" transform="rotate(0,104,680)"/><path d="M 92 692v 24h 24v -12a 12 12, 0, 0, 0, -12 -12" transform="rotate(90,104,704)"/><rect x="116" y="308" width="24" height="24" transform="rotate(0,128,320)"/><rect x="116" y="404" width="24" height="24" transform="rotate(0,128,416)"/><path d="M 116 452v 24h 24v -12a 12 12, 0, 0, 0, -12 -12" transform="rotate(0,128,464)"/><path d="M 116 476v 24h 12a 12 12, 0, 0, 0, 0 -24" transform="rotate(90,128,488)"/><rect x="116" y="572" width="24" height="24" transform="rotate(0,128,584)"/><rect x="116" y="596" width="24" height="24" transform="rotate(0,128,608)"/><rect x="116" y="620" width="24" height="24" transform="rotate(0,128,632)"/><rect x="116" y="644" width="24" height="24" transform="rotate(0,128,656)"/><rect x="116" y="668" width="24" height="24" transform="rotate(0,128,680)"/><circle cx="152" cy="272" r="12" transform="rotate(0,152,272)"/><rect x="140" y="308" width="24" height="24" transform="rotate(0,152,320)"/><path d="M 140 332v 24h 12a 12 12, 0, 0, 0, 0 -24" transform="rotate(90,152,344)"/><path d="M 140 380v 24h 12a 12 12, 0, 0, 0, 0 -24" transform="rotate(-90,152,392)"/><rect x="140" y="404" width="24" height="24" transform="rotate(0,152,416)"/><path d="M 140 428v 24h 12a 12 12, 0, 0, 0, 0 -24" transform="rotate(90,152,440)"/><rect x="140" y="572" width="24" height="24" transform="rotate(0,152,584)"/><rect x="140" y="668" width="24" height="24" transform="rotate(0,152,680)"/><rect x="140" y="692" width="24" height="24" transform="rotate(0,152,704)"/><path d="M 140 716v 24h 12a 12 12, 0, 0, 0, 0 -24" transform="rotate(90,152,728)"/><path d="M 164 284v 24h 24v -12a 12 12, 0, 0, 0, -12 -12" transform="rotate(-90,176,296)"/><path d="M 164 308v 24h 24v -12a 12 12, 0, 0, 0, -12 -12" transform="rotate(90,176,320)"/><path d="M 164 404v 24h 12a 12 12, 0, 0, 0, 0 -24" transform="rotate(0,176,416)"/><path d="M 164 476v 24h 12a 12 12, 0, 0, 0, 0 -24" transform="rotate(-90,176,488)"/><path d="M 164 500v 24h 24v -12a 12 12, 0, 0, 0, -12 -12" transform="rotate(180,176,512)"/><path d="M 164 572v 24h 24v -12a 12 12, 0, 0, 0, -12 -12" transform="rotate(0,176,584)"/><path d="M 164 596v 24h 12a 12 12, 0, 0, 0, 0 -24" transform="rotate(90,176,608)"/><path d="M 164 668v 24h 24v -12a 12 12, 0, 0, 0, -12 -12" transform="rotate(0,176,680)"/><path d="M 164 692v 24h 24v -12a 12 12, 0, 0, 0, -12 -12" transform="rotate(90,176,704)"/><path d="M 164 740v 24h 12a 12 12, 0, 0, 0, 0 -24" transform="rotate(180,176,752)"/><path d="M 188 260v 24h 24v -12a 12 12, 0, 0, 0, -12 -12" transform="rotate(-90,200,272)"/><path d="M 188 284v 24h 24v -12a 12 12, 0, 0, 0, -12 -12" transform="rotate(90,200,296)"/><rect x="188" y="500" width="24" height="24" transform="rotate(0,200,512)"/><path d="M 188 548v 24h 12a 12 12, 0, 0, 0, 0 -24" transform="rotate(180,200,560)"/><rect x="188" y="740" width="24" height="24" transform="rotate(0,200,752)"/><rect x="212" y="260" width="24" height="24" transform="rotate(0,224,272)"/><path d="M 212 308v 24h 12a 12 12, 0, 0, 0, 0 -24" transform="rotate(180,224,320)"/><path d="M 212 356v 24h 12a 12 12, 0, 0, 0, 0 -24" transform="rotate(180,224,368)"/><circle cx="224" cy="416" r="12" transform="rotate(0,224,416)"/><path d="M 212 452v 24h 12a 12 12, 0, 0, 0, 0 -24" transform="rotate(180,224,464)"/><rect x="212" y="500" width="24" height="24" transform="rotate(0,224,512)"/><rect x="212" y="548" width="24" height="24" transform="rotate(0,224,560)"/><circle cx="224" cy="608" r="12" transform="rotate(0,224,608)"/><path d="M 212 644v 24h 12a 12 12, 0, 0, 0, 0 -24" transform="rotate(180,224,656)"/><path d="M 212 692v 24h 12a 12 12, 0, 0, 0, 0 -24" transform="rotate(180,224,704)"/><rect x="212" y="740" width="24" height="24" transform="rotate(0,224,752)"/><path d="M 236 260v 24h 24v -12a 12 12, 0, 0, 0, -12 -12" transform="rotate(0,248,272)"/><rect x="236" y="284" width="24" height="24" transform="rotate(0,248,296)"/><rect x="236" y="308" width="24" height="24" transform="rotate(0,248,320)"/><path d="M 236 356v 24h 12a 12 12, 0, 0, 0, 0 -24" transform="rotate(0,248,368)"/><path d="M 236 452v 24h 12a 12 12, 0, 0, 0, 0 -24" transform="rotate(0,248,464)"/><rect x="236" y="500" width="24" height="24" transform="rotate(0,248,512)"/><path d="M 236 548v 24h 12a 12 12, 0, 0, 0, 0 -24" transform="rotate(0,248,560)"/><path d="M 236 644v 24h 12a 12 12, 0, 0, 0, 0 -24" transform="rotate(0,248,656)"/><rect x="236" y="692" width="24" height="24" transform="rotate(0,248,704)"/><rect x="236" y="716" width="24" height="24" transform="rotate(0,248,728)"/><rect x="236" y="740" width="24" height="24" transform="rotate(0,248,752)"/><path d="M 260 92v 24h 24v -12a 12 12, 0, 0, 0, -12 -12" transform="rotate(-90,272,104)"/><path d="M 260 116v 24h 12a 12 12, 0, 0, 0, 0 -24" transform="rotate(90,272,128)"/><circle cx="272" cy="224" r="12" transform="rotate(0,272,224)"/><path d="M 260 308v 24h 24v -12a 12 12, 0, 0, 0, -12 -12" transform="rotate(0,272,320)"/><path d="M 260 332v 24h 12a 12 12, 0, 0, 0, 0 -24" transform="rotate(90,272,344)"/><path d="M 260 428v 24h 12a 12 12, 0, 0, 0, 0 -24" transform="rotate(180,272,440)"/><path d="M 260 500v 24h 24v -12a 12 12, 0, 0, 0, -12 -12" transform="rotate(0,272,512)"/><path d="M 260 524v 24h 12a 12 12, 0, 0, 0, 0 -24" transform="rotate(90,272,536)"/><path d="M 260 620v 24h 12a 12 12, 0, 0, 0, 0 -24" transform="rotate(180,272,632)"/><path d="M 260 668v 24h 24v -12a 12 12, 0, 0, 0, -12 -12" transform="rotate(-90,272,680)"/><rect x="260" y="692" width="24" height="24" transform="rotate(0,272,704)"/><rect x="260" y="740" width="24" height="24" transform="rotate(0,272,752)"/><path d="M 260 788v 24h 12a 12 12, 0, 0, 0, 0 -24" transform="rotate(-90,272,800)"/><path d="M 260 812v 24h 12a 12 12, 0, 0, 0, 0 -24" transform="rotate(90,272,824)"/><path d="M 260 860v 24h 12a 12 12, 0, 0, 0, 0 -24" transform="rotate(180,272,872)"/><path d="M 284 68v 24h 12a 12 12, 0, 0, 0, 0 -24" transform="rotate(-90,296,80)"/><rect x="284" y="92" width="24" height="24" transform="rotate(0,296,104)"/><path d="M 284 164v 24h 12a 12 12, 0, 0, 0, 0 -24" transform="rotate(180,296,176)"/><path d="M 284 236v 24h 24v -12a 12 12, 0, 0, 0, -12 -12" transform="rotate(-90,296,248)"/><path d="M 284 260v 24h 12a 12 12, 0, 0, 0, 0 -24" transform="rotate(90,296,272)"/><path d="M 284 356v 24h 12a 12 12, 0, 0, 0, 0 -24" transform="rotate(-90,296,368)"/><rect x="284" y="380" width="24" height="24" transform="rotate(0,296,392)"/><rect x="284" y="404" width="24" height="24" transform="rotate(0,296,416)"/><path d="M 284 428v 24h 24v -12a 12 12, 0, 0, 0, -12 -12" transform="rotate(90,296,440)"/><circle cx="296" cy="488" r="12" transform="rotate(0,296,488)"/><path d="M 284 548v 24h 24v -12a 12 12, 0, 0, 0, -12 -12" transform="rotate(-90,296,560)"/><rect x="284" y="572" width="24" height="24" transform="rotate(0,296,584)"/><rect x="284" y="596" width="24" height="24" transform="rotate(0,296,608)"/><rect x="284" y="620" width="24" height="24" transform="rotate(0,296,632)"/><rect x="284" y="644" width="24" height="24" transform="rotate(0,296,656)"/><rect x="284" y="668" width="24" height="24" transform="rotate(0,296,680)"/><path d="M 284 692v 24h 24v -12a 12 12, 0, 0, 0, -12 -12" transform="rotate(90,296,704)"/><rect x="284" y="740" width="24" height="24" transform="rotate(0,296,752)"/><path d="M 284 764v 24h 24v -12a 12 12, 0, 0, 0, -12 -12" transform="rotate(180,296,776)"/><path d="M 284 860v 24h 24v -12a 12 12, 0, 0, 0, -12 -12" transform="rotate(0,296,872)"/><path d="M 284 884v 24h 12a 12 12, 0, 0, 0, 0 -24" transform="rotate(90,296,896)"/><path d="M 284 932v 24h 12a 12 12, 0, 0, 0, 0 -24" transform="rotate(180,296,944)"/><rect x="308" y="92" width="24" height="24" transform="rotate(0,320,104)"/><path d="M 308 116v 24h 24v -12a 12 12, 0, 0, 0, -12 -12" transform="rotate(180,320,128)"/><path d="M 308 164v 24h 24v -12a 12 12, 0, 0, 0, -12 -12" transform="rotate(0,320,176)"/><rect x="308" y="188" width="24" height="24" transform="rotate(0,320,200)"/><rect x="308" y="212" width="24" height="24" transform="rotate(0,320,224)"/><rect x="308" y="236" width="24" height="24" transform="rotate(0,320,248)"/><path d="M 308 452v 24h 12a 12 12, 0, 0, 0, 0 -24" transform="rotate(180,320,464)"/><path d="M 308 500v 24h 12a 12 12, 0, 0, 0, 0 -24" transform="rotate(-90,320,512)"/><rect x="308" y="524" width="24" height="24" transform="rotate(0,320,536)"/><rect x="308" y="548" width="24" height="24" transform="rotate(0,320,560)"/><rect x="308" y="572" width="24" height="24" transform="rotate(0,320,584)"/><rect x="308" y="596" width="24" height="24" transform="rotate(0,320,608)"/><rect x="308" y="620" width="24" height="24" transform="rotate(0,320,632)"/><rect x="308" y="740" width="24" height="24" transform="rotate(0,320,752)"/><rect x="308" y="764" width="24" height="24" transform="rotate(0,320,776)"/><path d="M 308 788v 24h 12a 12 12, 0, 0, 0, 0 -24" transform="rotate(90,320,800)"/><circle cx="320" cy="848" r="12" transform="rotate(0,320,848)"/><rect x="308" y="932" width="24" height="24" transform="rotate(0,320,944)"/><path d="M 332 68v 24h 12a 12 12, 0, 0, 0, 0 -24" transform="rotate(-90,344,80)"/><rect x="332" y="92" width="24" height="24" transform="rotate(0,344,104)"/><rect x="332" y="116" width="24" height="24" transform="rotate(0,344,128)"/><path d="M 332 140v 24h 12a 12 12, 0, 0, 0, 0 -24" transform="rotate(90,344,152)"/><rect x="332" y="188" width="24" height="24" transform="rotate(0,344,200)"/><rect x="332" y="236" width="24" height="24" transform="rotate(0,344,248)"/><circle cx="344" cy="320" r="12" transform="rotate(0,344,320)"/><path d="M 332 380v 24h 12a 12 12, 0, 0, 0, 0 -24" transform="rotate(-90,344,392)"/><rect x="332" y="404" width="24" height="24" transform="rotate(0,344,416)"/><rect x="332" y="428" width="24" height="24" transform="rotate(0,344,440)"/><rect x="332" y="452" width="24" height="24" transform="rotate(0,344,464)"/><rect x="332" y="524" width="24" height="24" transform="rotate(0,344,536)"/><rect x="332" y="548" width="24" height="24" transform="rotate(0,344,560)"/><path d="M 332 620v 24h 24v -12a 12 12, 0, 0, 0, -12 -12" transform="rotate(0,344,632)"/><path d="M 332 644v 24h 24v -12a 12 12, 0, 0, 0, -12 -12" transform="rotate(180,344,656)"/><path d="M 332 692v 24h 12a 12 12, 0, 0, 0, 0 -24" transform="rotate(-90,344,704)"/><rect x="332" y="716" width="24" height="24" transform="rotate(0,344,728)"/><path d="M 332 740v 24h 24v -12a 12 12, 0, 0, 0, -12 -12" transform="rotate(90,344,752)"/><path d="M 332 860v 24h 12a 12 12, 0, 0, 0, 0 -24" transform="rotate(180,344,872)"/><path d="M 332 908v 24h 12a 12 12, 0, 0, 0, 0 -24" transform="rotate(-90,344,920)"/><path d="M 332 932v 24h 24v -12a 12 12, 0, 0, 0, -12 -12" transform="rotate(90,344,944)"/><path d="M 356 164v 24h 24v -12a 12 12, 0, 0, 0, -12 -12" transform="rotate(-90,368,176)"/><rect x="356" y="188" width="24" height="24" transform="rotate(0,368,200)"/><rect x="356" y="212" width="24" height="24" transform="rotate(0,368,224)"/><rect x="356" y="236" width="24" height="24" transform="rotate(0,368,248)"/><rect x="356" y="260" width="24" height="24" transform="rotate(0,368,272)"/><path d="M 356 284v 24h 12a 12 12, 0, 0, 0, 0 -24" transform="rotate(90,368,296)"/><circle cx="368" cy="344" r="12" transform="rotate(0,368,344)"/><path d="M 356 404v 24h 12a 12 12, 0, 0, 0, 0 -24" transform="rotate(0,368,416)"/><rect x="356" y="452" width="24" height="24" transform="rotate(0,368,464)"/><rect x="356" y="476" width="24" height="24" transform="rotate(0,368,488)"/><rect x="356" y="500" width="24" height="24" transform="rotate(0,368,512)"/><rect x="356" y="524" width="24" height="24" transform="rotate(0,368,536)"/><path d="M 356 548v 24h 24v -12a 12 12, 0, 0, 0, -12 -12" transform="rotate(90,368,560)"/><rect x="356" y="644" width="24" height="24" transform="rotate(0,368,656)"/><path d="M 356 788v 24h 12a 12 12, 0, 0, 0, 0 -24" transform="rotate(180,368,800)"/><path d="M 356 860v 24h 12a 12 12, 0, 0, 0, 0 -24" transform="rotate(0,368,872)"/><path d="M 380 68v 24h 24v -12a 12 12, 0, 0, 0, -12 -12" transform="rotate(-90,392,80)"/><path d="M 380 92v 24h 24v -12a 12 12, 0, 0, 0, -12 -12" transform="rotate(180,392,104)"/><rect x="380" y="164" width="24" height="24" transform="rotate(0,392,176)"/><circle cx="392" cy="320" r="12" transform="rotate(0,392,320)"/><circle cx="392" cy="368" r="12" transform="rotate(0,392,368)"/><path d="M 380 428v 24h 12a 12 12, 0, 0, 0, 0 -24" transform="rotate(-90,392,440)"/><rect x="380" y="452" width="24" height="24" transform="rotate(0,392,464)"/><path d="M 380 500v 24h 24v -12a 12 12, 0, 0, 0, -12 -12" transform="rotate(0,392,512)"/><rect x="380" y="524" width="24" height="24" transform="rotate(0,392,536)"/><circle cx="392" cy="584" r="12" transform="rotate(0,392,584)"/><path d="M 380 620v 24h 24v -12a 12 12, 0, 0, 0, -12 -12" transform="rotate(-90,392,632)"/><path d="M 380 644v 24h 24v -12a 12 12, 0, 0, 0, -12 -12" transform="rotate(90,392,656)"/><path d="M 380 716v 24h 24v -12a 12 12, 0, 0, 0, -12 -12" transform="rotate(-90,392,728)"/><rect x="380" y="740" width="24" height="24" transform="rotate(0,392,752)"/><rect x="380" y="764" width="24" height="24" transform="rotate(0,392,776)"/><rect x="380" y="788" width="24" height="24" transform="rotate(0,392,800)"/><path d="M 380 812v 24h 24v -12a 12 12, 0, 0, 0, -12 -12" transform="rotate(180,392,824)"/><path d="M 380 884v 24h 12a 12 12, 0, 0, 0, 0 -24" transform="rotate(180,392,896)"/><path d="M 380 932v 24h 12a 12 12, 0, 0, 0, 0 -24" transform="rotate(180,392,944)"/><rect x="404" y="68" width="24" height="24" transform="rotate(0,416,80)"/><rect x="404" y="92" width="24" height="24" transform="rotate(0,416,104)"/><rect x="404" y="116" width="24" height="24" transform="rotate(0,416,128)"/><rect x="404" y="140" width="24" height="24" transform="rotate(0,416,152)"/><rect x="404" y="164" width="24" height="24" transform="rotate(0,416,176)"/><rect x="404" y="188" width="24" height="24" transform="rotate(0,416,200)"/><rect x="404" y="212" width="24" height="24" transform="rotate(0,416,224)"/><rect x="404" y="236" width="24" height="24" transform="rotate(0,416,248)"/><path d="M 404 260v 24h 24v -12a 12 12, 0, 0, 0, -12 -12" transform="rotate(180,416,272)"/><path d="M 404 452v 24h 24v -12a 12 12, 0, 0, 0, -12 -12" transform="rotate(0,416,464)"/><path d="M 404 476v 24h 12a 12 12, 0, 0, 0, 0 -24" transform="rotate(90,416,488)"/><path d="M 404 524v 24h 24v -12a 12 12, 0, 0, 0, -12 -12" transform="rotate(0,416,536)"/><path d="M 404 548v 24h 24v -12a 12 12, 0, 0, 0, -12 -12" transform="rotate(180,416,560)"/><path d="M 404 620v 24h 12a 12 12, 0, 0, 0, 0 -24" transform="rotate(0,416,632)"/><path d="M 404 692v 24h 24v -12a 12 12, 0, 0, 0, -12 -12" transform="rotate(-90,416,704)"/><path d="M 404 716v 24h 24v -12a 12 12, 0, 0, 0, -12 -12" transform="rotate(90,416,728)"/><rect x="404" y="764" width="24" height="24" transform="rotate(0,416,776)"/><rect x="404" y="788" width="24" height="24" transform="rotate(0,416,800)"/><rect x="404" y="812" width="24" height="24" transform="rotate(0,416,824)"/><rect x="404" y="836" width="24" height="24" transform="rotate(0,416,848)"/><rect x="404" y="860" width="24" height="24" transform="rotate(0,416,872)"/><path d="M 404 884v 24h 24v -12a 12 12, 0, 0, 0, -12 -12" transform="rotate(90,416,896)"/><path d="M 404 932v 24h 12a 12 12, 0, 0, 0, 0 -24" transform="rotate(0,416,944)"/><rect x="428" y="68" width="24" height="24" transform="rotate(0,440,80)"/><rect x="428" y="92" width="24" height="24" transform="rotate(0,440,104)"/><path d="M 428 140v 24h 24v -12a 12 12, 0, 0, 0, -12 -12" transform="rotate(0,440,152)"/><path d="M 428 164v 24h 24v -12a 12 12, 0, 0, 0, -12 -12" transform="rotate(90,440,176)"/><rect x="428" y="260" width="24" height="24" transform="rotate(0,440,272)"/><path d="M 428 284v 24h 24v -12a 12 12, 0, 0, 0, -12 -12" transform="rotate(180,440,296)"/><circle cx="440" cy="368" r="12" transform="rotate(0,440,368)"/><path d="M 428 404v 24h 12a 12 12, 0, 0, 0, 0 -24" transform="rotate(180,440,416)"/><rect x="428" y="548" width="24" height="24" transform="rotate(0,440,560)"/><path d="M 428 572v 24h 24v -12a 12 12, 0, 0, 0, -12 -12" transform="rotate(180,440,584)"/><path d="M 428 644v 24h 12a 12 12, 0, 0, 0, 0 -24" transform="rotate(180,440,656)"/><path d="M 428 692v 24h 12a 12 12, 0, 0, 0, 0 -24" transform="rotate(0,440,704)"/><path d="M 428 740v 24h 24v -12a 12 12, 0, 0, 0, -12 -12" transform="rotate(-90,440,752)"/><path d="M 428 764v 24h 24v -12a 12 12, 0, 0, 0, -12 -12" transform="rotate(90,440,776)"/><rect x="428" y="812" width="24" height="24" transform="rotate(0,440,824)"/><path d="M 428 860v 24h 12a 12 12, 0, 0, 0, 0 -24" transform="rotate(0,440,872)"/><circle cx="440" cy="920" r="12" transform="rotate(0,440,920)"/><path d="M 452 68v 24h 24v -12a 12 12, 0, 0, 0, -12 -12" transform="rotate(0,464,80)"/><rect x="452" y="92" width="24" height="24" transform="rotate(0,464,104)"/><path d="M 452 116v 24h 24v -12a 12 12, 0, 0, 0, -12 -12" transform="rotate(180,464,128)"/><path d="M 452 212v 24h 12a 12 12, 0, 0, 0, 0 -24" transform="rotate(-90,464,224)"/><rect x="452" y="236" width="24" height="24" transform="rotate(0,464,248)"/><rect x="452" y="260" width="24" height="24" transform="rotate(0,464,272)"/><path d="M 452 284v 24h 24v -12a 12 12, 0, 0, 0, -12 -12" transform="rotate(90,464,296)"/><circle cx="464" cy="344" r="12" transform="rotate(0,464,344)"/><rect x="452" y="404" width="24" height="24" transform="rotate(0,464,416)"/><circle cx="464" cy="488" r="12" transform="rotate(0,464,488)"/><path d="M 452 548v 24h 24v -12a 12 12, 0, 0, 0, -12 -12" transform="rotate(0,464,560)"/><rect x="452" y="572" width="24" height="24" transform="rotate(0,464,584)"/><path d="M 452 620v 24h 12a 12 12, 0, 0, 0, 0 -24" transform="rotate(-90,464,632)"/><rect x="452" y="644" width="24" height="24" transform="rotate(0,464,656)"/><path d="M 452 716v 24h 24v -12a 12 12, 0, 0, 0, -12 -12" transform="rotate(-90,464,728)"/><path d="M 452 740v 24h 24v -12a 12 12, 0, 0, 0, -12 -12" transform="rotate(90,464,752)"/><path d="M 452 788v 24h 24v -12a 12 12, 0, 0, 0, -12 -12" transform="rotate(-90,464,800)"/><rect x="452" y="812" width="24" height="24" transform="rotate(0,464,824)"/><path d="M 452 932v 24h 12a 12 12, 0, 0, 0, 0 -24" transform="rotate(180,464,944)"/><rect x="476" y="116" width="24" height="24" transform="rotate(0,488,128)"/><path d="M 476 380v 24h 12a 12 12, 0, 0, 0, 0 -24" transform="rotate(-90,488,392)"/><rect x="476" y="404" width="24" height="24" transform="rotate(0,488,416)"/><path d="M 476 428v 24h 24v -12a 12 12, 0, 0, 0, -12 -12" transform="rotate(180,488,440)"/><path d="M 476 500v 24h 12a 12 12, 0, 0, 0, 0 -24" transform="rotate(180,488,512)"/><path d="M 476 572v 24h 12a 12 12, 0, 0, 0, 0 -24" transform="rotate(0,488,584)"/><rect x="476" y="644" width="24" height="24" transform="rotate(0,488,656)"/><path d="M 476 668v 24h 24v -12a 12 12, 0, 0, 0, -12 -12" transform="rotate(180,488,680)"/><rect x="476" y="716" width="24" height="24" transform="rotate(0,488,728)"/><rect x="476" y="788" width="24" height="24" transform="rotate(0,488,800)"/><rect x="476" y="812" width="24" height="24" transform="rotate(0,488,824)"/><rect x="476" y="932" width="24" height="24" transform="rotate(0,488,944)"/><circle cx="512" cy="80" r="12" transform="rotate(0,512,80)"/><path d="M 500 116v 24h 12a 12 12, 0, 0, 0, 0 -24" transform="rotate(0,512,128)"/><path d="M 500 164v 24h 12a 12 12, 0, 0, 0, 0 -24" transform="rotate(-90,512,176)"/><rect x="500" y="188" width="24" height="24" transform="rotate(0,512,200)"/><rect x="500" y="212" width="24" height="24" transform="rotate(0,512,224)"/><rect x="500" y="236" width="24" height="24" transform="rotate(0,512,248)"/><rect x="500" y="260" width="24" height="24" transform="rotate(0,512,272)"/><path d="M 500 284v 24h 12a 12 12, 0, 0, 0, 0 -24" transform="rotate(90,512,296)"/><circle cx="512" cy="344" r="12" transform="rotate(0,512,344)"/><rect x="500" y="404" width="24" height="24" transform="rotate(0,512,416)"/><path d="M 500 428v 24h 24v -12a 12 12, 0, 0, 0, -12 -12" transform="rotate(90,512,440)"/><rect x="500" y="500" width="24" height="24" transform="rotate(0,512,512)"/><rect x="500" y="524" width="24" height="24" transform="rotate(0,512,536)"/><path d="M 500 548v 24h 24v -12a 12 12, 0, 0, 0, -12 -12" transform="rotate(180,512,560)"/><rect x="500" y="644" width="24" height="24" transform="rotate(0,512,656)"/><path d="M 500 668v 24h 24v -12a 12 12, 0, 0, 0, -12 -12" transform="rotate(90,512,680)"/><rect x="500" y="716" width="24" height="24" transform="rotate(0,512,728)"/><path d="M 500 788v 24h 24v -12a 12 12, 0, 0, 0, -12 -12" transform="rotate(0,512,800)"/><rect x="500" y="812" width="24" height="24" transform="rotate(0,512,824)"/><rect x="500" y="836" width="24" height="24" transform="rotate(0,512,848)"/><path d="M 500 860v 24h 24v -12a 12 12, 0, 0, 0, -12 -12" transform="rotate(180,512,872)"/><rect x="500" y="932" width="24" height="24" transform="rotate(0,512,944)"/><circle cx="536" cy="104" r="12" transform="rotate(0,536,104)"/><circle cx="536" cy="152" r="12" transform="rotate(0,536,152)"/><path d="M 524 188v 24h 12a 12 12, 0, 0, 0, 0 -24" transform="rotate(0,536,200)"/><path d="M 524 236v 24h 24v -12a 12 12, 0, 0, 0, -12 -12" transform="rotate(0,536,248)"/><rect x="524" y="260" width="24" height="24" transform="rotate(0,536,272)"/><circle cx="536" cy="320" r="12" transform="rotate(0,536,320)"/><path d="M 524 356v 24h 12a 12 12, 0, 0, 0, 0 -24" transform="rotate(180,536,368)"/><path d="M 524 404v 24h 12a 12 12, 0, 0, 0, 0 -24" transform="rotate(0,536,416)"/><path d="M 524 476v 24h 12a 12 12, 0, 0, 0, 0 -24" transform="rotate(-90,536,488)"/><path d="M 524 500v 24h 24v -12a 12 12, 0, 0, 0, -12 -12" transform="rotate(90,536,512)"/><rect x="524" y="548" width="24" height="24" transform="rotate(0,536,560)"/><path d="M 524 620v 24h 12a 12 12, 0, 0, 0, 0 -24" transform="rotate(-90,536,632)"/><path d="M 524 644v 24h 24v -12a 12 12, 0, 0, 0, -12 -12" transform="rotate(90,536,656)"/><path d="M 524 692v 24h 12a 12 12, 0, 0, 0, 0 -24" transform="rotate(-90,536,704)"/><path d="M 524 716v 24h 24v -12a 12 12, 0, 0, 0, -12 -12" transform="rotate(90,536,728)"/><path d="M 524 812v 24h 12a 12 12, 0, 0, 0, 0 -24" transform="rotate(0,536,824)"/><path d="M 524 860v 24h 12a 12 12, 0, 0, 0, 0 -24" transform="rotate(0,536,872)"/><path d="M 524 908v 24h 12a 12 12, 0, 0, 0, 0 -24" transform="rotate(-90,536,920)"/><path d="M 524 932v 24h 24v -12a 12 12, 0, 0, 0, -12 -12" transform="rotate(90,536,944)"/><path d="M 548 164v 24h 12a 12 12, 0, 0, 0, 0 -24" transform="rotate(180,560,176)"/><circle cx="560" cy="224" r="12" transform="rotate(0,560,224)"/><path d="M 548 260v 24h 12a 12 12, 0, 0, 0, 0 -24" transform="rotate(0,560,272)"/><path d="M 548 332v 24h 12a 12 12, 0, 0, 0, 0 -24" transform="rotate(-90,560,344)"/><rect x="548" y="356" width="24" height="24" transform="rotate(0,560,368)"/><path d="M 548 380v 24h 24v -12a 12 12, 0, 0, 0, -12 -12" transform="rotate(180,560,392)"/><path d="M 548 524v 24h 12a 12 12, 0, 0, 0, 0 -24" transform="rotate(-90,560,536)"/><rect x="548" y="548" width="24" height="24" transform="rotate(0,560,560)"/><circle cx="560" cy="752" r="12" transform="rotate(0,560,752)"/><path d="M 548 788v 24h 12a 12 12, 0, 0, 0, 0 -24" transform="rotate(180,560,800)"/><path d="M 572 68v 24h 12a 12 12, 0, 0, 0, 0 -24" transform="rotate(-90,584,80)"/><rect x="572" y="92" width="24" height="24" transform="rotate(0,584,104)"/><rect x="572" y="116" width="24" height="24" transform="rotate(0,584,128)"/><rect x="572" y="140" width="24" height="24" transform="rotate(0,584,152)"/><path d="M 572 164v 24h 24v -12a 12 12, 0, 0, 0, -12 -12" transform="rotate(90,584,176)"/><circle cx="584" cy="296" r="12" transform="rotate(0,584,296)"/><rect x="572" y="380" width="24" height="24" transform="rotate(0,584,392)"/><path d="M 572 404v 24h 24v -12a 12 12, 0, 0, 0, -12 -12" transform="rotate(180,584,416)"/><circle cx="584" cy="464" r="12" transform="rotate(0,584,464)"/><path d="M 572 500v 24h 12a 12 12, 0, 0, 0, 0 -24" transform="rotate(180,584,512)"/><path d="M 572 548v 24h 12a 12 12, 0, 0, 0, 0 -24" transform="rotate(0,584,560)"/><path d="M 572 596v 24h 12a 12 12, 0, 0, 0, 0 -24" transform="rotate(-90,584,608)"/><rect x="572" y="620" width="24" height="24" transform="rotate(0,584,632)"/><rect x="572" y="644" width="24" height="24" transform="rotate(0,584,656)"/><path d="M 572 668v 24h 12a 12 12, 0, 0, 0, 0 -24" transform="rotate(90,584,680)"/><path d="M 572 716v 24h 12a 12 12, 0, 0, 0, 0 -24" transform="rotate(180,584,728)"/><path d="M 572 788v 24h 24v -12a 12 12, 0, 0, 0, -12 -12" transform="rotate(0,584,800)"/><path d="M 572 812v 24h 24v -12a 12 12, 0, 0, 0, -12 -12" transform="rotate(180,584,824)"/><path d="M 572 860v 24h 12a 12 12, 0, 0, 0, 0 -24" transform="rotate(-90,584,872)"/><path d="M 572 884v 24h 24v -12a 12 12, 0, 0, 0, -12 -12" transform="rotate(180,584,896)"/><path d="M 572 932v 24h 12a 12 12, 0, 0, 0, 0 -24" transform="rotate(180,584,944)"/><path d="M 596 92v 24h 12a 12 12, 0, 0, 0, 0 -24" transform="rotate(0,608,104)"/><circle cx="608" cy="224" r="12" transform="rotate(0,608,224)"/><circle cx="608" cy="344" r="12" transform="rotate(0,608,344)"/><rect x="596" y="380" width="24" height="24" transform="rotate(0,608,392)"/><rect x="596" y="404" width="24" height="24" transform="rotate(0,608,416)"/><path d="M 596 500v 24h 12a 12 12, 0, 0, 0, 0 -24" transform="rotate(0,608,512)"/><circle cx="608" cy="584" r="12" transform="rotate(0,608,584)"/><path d="M 596 620v 24h 24v -12a 12 12, 0, 0, 0, -12 -12" transform="rotate(0,608,632)"/><rect x="596" y="644" width="24" height="24" transform="rotate(0,608,656)"/><rect x="596" y="716" width="24" height="24" transform="rotate(0,608,728)"/><path d="M 596 740v 24h 12a 12 12, 0, 0, 0, 0 -24" transform="rotate(90,608,752)"/><rect x="596" y="812" width="24" height="24" transform="rotate(0,608,824)"/><path d="M 596 836v 24h 12a 12 12, 0, 0, 0, 0 -24" transform="rotate(90,608,848)"/><path d="M 596 884v 24h 12a 12 12, 0, 0, 0, 0 -24" transform="rotate(0,608,896)"/><rect x="596" y="932" width="24" height="24" transform="rotate(0,608,944)"/><path d="M 620 284v 24h 24v -12a 12 12, 0, 0, 0, -12 -12" transform="rotate(-90,632,296)"/><path d="M 620 308v 24h 12a 12 12, 0, 0, 0, 0 -24" transform="rotate(90,632,320)"/><path d="M 620 356v 24h 24v -12a 12 12, 0, 0, 0, -12 -12" transform="rotate(-90,632,368)"/><rect x="620" y="380" width="24" height="24" transform="rotate(0,632,392)"/><path d="M 620 404v 24h 24v -12a 12 12, 0, 0, 0, -12 -12" transform="rotate(90,632,416)"/><path d="M 620 476v 24h 12a 12 12, 0, 0, 0, 0 -24" transform="rotate(180,632,488)"/><path d="M 620 524v 24h 12a 12 12, 0, 0, 0, 0 -24" transform="rotate(180,632,536)"/><circle cx="632" cy="608" r="12" transform="rotate(0,632,608)"/><rect x="620" y="644" width="24" height="24" transform="rotate(0,632,656)"/><path d="M 620 668v 24h 24v -12a 12 12, 0, 0, 0, -12 -12" transform="rotate(180,632,680)"/><path d="M 620 716v 24h 12a 12 12, 0, 0, 0, 0 -24" transform="rotate(0,632,728)"/><path d="M 620 788v 24h 12a 12 12, 0, 0, 0, 0 -24" transform="rotate(-90,632,800)"/><rect x="620" y="812" width="24" height="24" transform="rotate(0,632,824)"/><path d="M 620 860v 24h 12a 12 12, 0, 0, 0, 0 -24" transform="rotate(180,632,872)"/><path d="M 620 908v 24h 24v -12a 12 12, 0, 0, 0, -12 -12" transform="rotate(-90,632,920)"/><rect x="620" y="932" width="24" height="24" transform="rotate(0,632,944)"/><path d="M 644 140v 24h 12a 12 12, 0, 0, 0, 0 -24" transform="rotate(-90,656,152)"/><rect x="644" y="164" width="24" height="24" transform="rotate(0,656,176)"/><rect x="644" y="188" width="24" height="24" transform="rotate(0,656,200)"/><rect x="644" y="212" width="24" height="24" transform="rotate(0,656,224)"/><path d="M 644 236v 24h 12a 12 12, 0, 0, 0, 0 -24" transform="rotate(90,656,248)"/><path d="M 644 284v 24h 12a 12 12, 0, 0, 0, 0 -24" transform="rotate(0,656,296)"/><path d="M 644 332v 24h 24v -12a 12 12, 0, 0, 0, -12 -12" transform="rotate(-90,656,344)"/><rect x="644" y="356" width="24" height="24" transform="rotate(0,656,368)"/><path d="M 644 380v 24h 24v -12a 12 12, 0, 0, 0, -12 -12" transform="rotate(90,656,392)"/><path d="M 644 452v 24h 12a 12 12, 0, 0, 0, 0 -24" transform="rotate(-90,656,464)"/><rect x="644" y="476" width="24" height="24" transform="rotate(0,656,488)"/><rect x="644" y="500" width="24" height="24" transform="rotate(0,656,512)"/><rect x="644" y="524" width="24" height="24" transform="rotate(0,656,536)"/><path d="M 644 548v 24h 12a 12 12, 0, 0, 0, 0 -24" transform="rotate(90,656,560)"/><path d="M 644 620v 24h 24v -12a 12 12, 0, 0, 0, -12 -12" transform="rotate(-90,656,632)"/><rect x="644" y="644" width="24" height="24" transform="rotate(0,656,656)"/><rect x="644" y="668" width="24" height="24" transform="rotate(0,656,680)"/><rect x="644" y="812" width="24" height="24" transform="rotate(0,656,824)"/><rect x="644" y="836" width="24" height="24" transform="rotate(0,656,848)"/><rect x="644" y="860" width="24" height="24" transform="rotate(0,656,872)"/><path d="M 644 908v 24h 24v -12a 12 12, 0, 0, 0, -12 -12" transform="rotate(0,656,920)"/><rect x="644" y="932" width="24" height="24" transform="rotate(0,656,944)"/><rect x="668" y="164" width="24" height="24" transform="rotate(0,680,176)"/><rect x="668" y="188" width="24" height="24" transform="rotate(0,680,200)"/><path d="M 668 260v 24h 12a 12 12, 0, 0, 0, 0 -24" transform="rotate(180,680,272)"/><path d="M 668 308v 24h 24v -12a 12 12, 0, 0, 0, -12 -12" transform="rotate(-90,680,320)"/><rect x="668" y="332" width="24" height="24" transform="rotate(0,680,344)"/><path d="M 668 356v 24h 24v -12a 12 12, 0, 0, 0, -12 -12" transform="rotate(90,680,368)"/><path d="M 668 404v 24h 24v -12a 12 12, 0, 0, 0, -12 -12" transform="rotate(-90,680,416)"/><path d="M 668 428v 24h 24v -12a 12 12, 0, 0, 0, -12 -12" transform="rotate(180,680,440)"/><rect x="668" y="620" width="24" height="24" transform="rotate(0,680,632)"/><path d="M 668 668v 24h 12a 12 12, 0, 0, 0, 0 -24" transform="rotate(0,680,680)"/><rect x="668" y="812" width="24" height="24" transform="rotate(0,680,824)"/><rect x="668" y="836" width="24" height="24" transform="rotate(0,680,848)"/><rect x="668" y="860" width="24" height="24" transform="rotate(0,680,872)"/><path d="M 668 884v 24h 24v -12a 12 12, 0, 0, 0, -12 -12" transform="rotate(180,680,896)"/><rect x="668" y="932" width="24" height="24" transform="rotate(0,680,944)"/><path d="M 692 68v 24h 12a 12 12, 0, 0, 0, 0 -24" transform="rotate(-90,704,80)"/><rect x="692" y="92" width="24" height="24" transform="rotate(0,704,104)"/><rect x="692" y="116" width="24" height="24" transform="rotate(0,704,128)"/><rect x="692" y="140" width="24" height="24" transform="rotate(0,704,152)"/><rect x="692" y="164" width="24" height="24" transform="rotate(0,704,176)"/><rect x="692" y="188" width="24" height="24" transform="rotate(0,704,200)"/><rect x="692" y="212" width="24" height="24" transform="rotate(0,704,224)"/><rect x="692" y="236" width="24" height="24" transform="rotate(0,704,248)"/><path d="M 692 260v 24h 24v -12a 12 12, 0, 0, 0, -12 -12" transform="rotate(90,704,272)"/><path d="M 692 308v 24h 24v -12a 12 12, 0, 0, 0, -12 -12" transform="rotate(0,704,320)"/><rect x="692" y="332" width="24" height="24" transform="rotate(0,704,344)"/><path d="M 692 404v 24h 24v -12a 12 12, 0, 0, 0, -12 -12" transform="rotate(0,704,416)"/><path d="M 692 428v 24h 24v -12a 12 12, 0, 0, 0, -12 -12" transform="rotate(90,704,440)"/><path d="M 692 524v 24h 12a 12 12, 0, 0, 0, 0 -24" transform="rotate(-90,704,536)"/><rect x="692" y="548" width="24" height="24" transform="rotate(0,704,560)"/><path d="M 692 572v 24h 12a 12 12, 0, 0, 0, 0 -24" transform="rotate(90,704,584)"/><path d="M 692 620v 24h 12a 12 12, 0, 0, 0, 0 -24" transform="rotate(0,704,632)"/><circle cx="704" cy="728" r="12" transform="rotate(0,704,728)"/><path d="M 692 764v 24h 24v -12a 12 12, 0, 0, 0, -12 -12" transform="rotate(-90,704,776)"/><rect x="692" y="788" width="24" height="24" transform="rotate(0,704,800)"/><rect x="692" y="812" width="24" height="24" transform="rotate(0,704,824)"/><path d="M 692 884v 24h 24v -12a 12 12, 0, 0, 0, -12 -12" transform="rotate(0,704,896)"/><rect x="692" y="908" width="24" height="24" transform="rotate(0,704,920)"/><rect x="692" y="932" width="24" height="24" transform="rotate(0,704,944)"/><path d="M 716 116v 24h 12a 12 12, 0, 0, 0, 0 -24" transform="rotate(0,728,128)"/><rect x="716" y="236" width="24" height="24" transform="rotate(0,728,248)"/><circle cx="728" cy="296" r="12" transform="rotate(0,728,296)"/><rect x="716" y="332" width="24" height="24" transform="rotate(0,728,344)"/><path d="M 716 380v 24h 12a 12 12, 0, 0, 0, 0 -24" transform="rotate(180,728,392)"/><path d="M 716 452v 24h 12a 12 12, 0, 0, 0, 0 -24" transform="rotate(180,728,464)"/><path d="M 716 548v 24h 12a 12 12, 0, 0, 0, 0 -24" transform="rotate(0,728,560)"/><circle cx="728" cy="608" r="12" transform="rotate(0,728,608)"/><path d="M 716 644v 24h 12a 12 12, 0, 0, 0, 0 -24" transform="rotate(180,728,656)"/><circle cx="728" cy="704" r="12" transform="rotate(0,728,704)"/><rect x="716" y="764" width="24" height="24" transform="rotate(0,728,776)"/><rect x="716" y="788" width="24" height="24" transform="rotate(0,728,800)"/><rect x="716" y="812" width="24" height="24" transform="rotate(0,728,824)"/><path d="M 716 836v 24h 24v -12a 12 12, 0, 0, 0, -12 -12" transform="rotate(180,728,848)"/><rect x="716" y="932" width="24" height="24" transform="rotate(0,728,944)"/><path d="M 740 68v 24h 12a 12 12, 0, 0, 0, 0 -24" transform="rotate(-90,752,80)"/><path d="M 740 92v 24h 12a 12 12, 0, 0, 0, 0 -24" transform="rotate(90,752,104)"/><circle cx="752" cy="152" r="12" transform="rotate(0,752,152)"/><path d="M 740 212v 24h 12a 12 12, 0, 0, 0, 0 -24" transform="rotate(-90,752,224)"/><path d="M 740 236v 24h 24v -12a 12 12, 0, 0, 0, -12 -12" transform="rotate(90,752,248)"/><path d="M 740 308v 24h 12a 12 12, 0, 0, 0, 0 -24" transform="rotate(-90,752,320)"/><path d="M 740 332v 24h 24v -12a 12 12, 0, 0, 0, -12 -12" transform="rotate(90,752,344)"/><rect x="740" y="380" width="24" height="24" transform="rotate(0,752,392)"/><path d="M 740 404v 24h 24v -12a 12 12, 0, 0, 0, -12 -12" transform="rotate(180,752,416)"/><path d="M 740 452v 24h 24v -12a 12 12, 0, 0, 0, -12 -12" transform="rotate(0,752,464)"/><path d="M 740 476v 24h 24v -12a 12 12, 0, 0, 0, -12 -12" transform="rotate(180,752,488)"/><rect x="740" y="644" width="24" height="24" transform="rotate(0,752,656)"/><path d="M 740 716v 24h 12a 12 12, 0, 0, 0, 0 -24" transform="rotate(-90,752,728)"/><rect x="740" y="740" width="24" height="24" transform="rotate(0,752,752)"/><rect x="740" y="764" width="24" height="24" transform="rotate(0,752,776)"/><rect x="740" y="788" width="24" height="24" transform="rotate(0,752,800)"/><rect x="740" y="812" width="24" height="24" transform="rotate(0,752,824)"/><rect x="740" y="836" width="24" height="24" transform="rotate(0,752,848)"/><rect x="740" y="860" width="24" height="24" transform="rotate(0,752,872)"/><rect x="740" y="884" width="24" height="24" transform="rotate(0,752,896)"/><rect x="740" y="908" width="24" height="24" transform="rotate(0,752,920)"/><rect x="740" y="932" width="24" height="24" transform="rotate(0,752,944)"/><path d="M 764 260v 24h 12a 12 12, 0, 0, 0, 0 -24" transform="rotate(-90,776,272)"/><path d="M 764 284v 24h 24v -12a 12 12, 0, 0, 0, -12 -12" transform="rotate(180,776,296)"/><path d="M 764 380v 24h 24v -12a 12 12, 0, 0, 0, -12 -12" transform="rotate(0,776,392)"/><rect x="764" y="404" width="24" height="24" transform="rotate(0,776,416)"/><path d="M 764 428v 24h 12a 12 12, 0, 0, 0, 0 -24" transform="rotate(90,776,440)"/><path d="M 764 476v 24h 24v -12a 12 12, 0, 0, 0, -12 -12" transform="rotate(0,776,488)"/><rect x="764" y="500" width="24" height="24" transform="rotate(0,776,512)"/><path d="M 764 524v 24h 12a 12 12, 0, 0, 0, 0 -24" transform="rotate(90,776,536)"/><path d="M 764 596v 24h 24v -12a 12 12, 0, 0, 0, -12 -12" transform="rotate(-90,776,608)"/><rect x="764" y="620" width="24" height="24" transform="rotate(0,776,632)"/><rect x="764" y="644" width="24" height="24" transform="rotate(0,776,656)"/><rect x="764" y="668" width="24" height="24" transform="rotate(0,776,680)"/><path d="M 764 692v 24h 12a 12 12, 0, 0, 0, 0 -24" transform="rotate(90,776,704)"/><rect x="764" y="740" width="24" height="24" transform="rotate(0,776,752)"/><rect x="764" y="836" width="24" height="24" transform="rotate(0,776,848)"/><rect x="764" y="860" width="24" height="24" transform="rotate(0,776,872)"/><path d="M 764 908v 24h 24v -12a 12 12, 0, 0, 0, -12 -12" transform="rotate(0,776,920)"/><rect x="764" y="932" width="24" height="24" transform="rotate(0,776,944)"/><path d="M 788 284v 24h 24v -12a 12 12, 0, 0, 0, -12 -12" transform="rotate(0,800,296)"/><path d="M 788 308v 24h 24v -12a 12 12, 0, 0, 0, -12 -12" transform="rotate(180,800,320)"/><path d="M 788 404v 24h 12a 12 12, 0, 0, 0, 0 -24" transform="rotate(0,800,416)"/><rect x="788" y="500" width="24" height="24" transform="rotate(0,800,512)"/><path d="M 788 572v 24h 12a 12 12, 0, 0, 0, 0 -24" transform="rotate(-90,800,584)"/><rect x="788" y="596" width="24" height="24" transform="rotate(0,800,608)"/><rect x="788" y="620" width="24" height="24" transform="rotate(0,800,632)"/><path d="M 788 644v 24h 24v -12a 12 12, 0, 0, 0, -12 -12" transform="rotate(90,800,656)"/><rect x="788" y="740" width="24" height="24" transform="rotate(0,800,752)"/><circle cx="800" cy="800" r="12" transform="rotate(0,800,800)"/><rect x="788" y="836" width="24" height="24" transform="rotate(0,800,848)"/><rect x="788" y="860" width="24" height="24" transform="rotate(0,800,872)"/><path d="M 788 884v 24h 12a 12 12, 0, 0, 0, 0 -24" transform="rotate(90,800,896)"/><rect x="788" y="932" width="24" height="24" transform="rotate(0,800,944)"/><rect x="812" y="308" width="24" height="24" transform="rotate(0,824,320)"/><rect x="812" y="332" width="24" height="24" transform="rotate(0,824,344)"/><path d="M 812 356v 24h 24v -12a 12 12, 0, 0, 0, -12 -12" transform="rotate(180,824,368)"/><path d="M 812 428v 24h 12a 12 12, 0, 0, 0, 0 -24" transform="rotate(-90,824,440)"/><path d="M 812 452v 24h 24v -12a 12 12, 0, 0, 0, -12 -12" transform="rotate(180,824,464)"/><rect x="812" y="500" width="24" height="24" transform="rotate(0,824,512)"/><rect x="812" y="596" width="24" height="24" transform="rotate(0,824,608)"/><path d="M 812 692v 24h 12a 12 12, 0, 0, 0, 0 -24" transform="rotate(-90,824,704)"/><rect x="812" y="716" width="24" height="24" transform="rotate(0,824,728)"/><rect x="812" y="740" width="24" height="24" transform="rotate(0,824,752)"/><rect x="812" y="836" width="24" height="24" transform="rotate(0,824,848)"/><path d="M 812 860v 24h 24v -12a 12 12, 0, 0, 0, -12 -12" transform="rotate(90,824,872)"/><path d="M 812 908v 24h 24v -12a 12 12, 0, 0, 0, -12 -12" transform="rotate(-90,824,920)"/><rect x="812" y="932" width="24" height="24" transform="rotate(0,824,944)"/><path d="M 836 284v 24h 12a 12 12, 0, 0, 0, 0 -24" transform="rotate(-90,848,296)"/><rect x="836" y="308" width="24" height="24" transform="rotate(0,848,320)"/><rect x="836" y="332" width="24" height="24" transform="rotate(0,848,344)"/><rect x="836" y="356" width="24" height="24" transform="rotate(0,848,368)"/><path d="M 836 404v 24h 12a 12 12, 0, 0, 0, 0 -24" transform="rotate(180,848,416)"/><path d="M 836 452v 24h 24v -12a 12 12, 0, 0, 0, -12 -12" transform="rotate(0,848,464)"/><rect x="836" y="476" width="24" height="24" transform="rotate(0,848,488)"/><rect x="836" y="500" width="24" height="24" transform="rotate(0,848,512)"/><rect x="836" y="524" width="24" height="24" transform="rotate(0,848,536)"/><rect x="836" y="548" width="24" height="24" transform="rotate(0,848,560)"/><rect x="836" y="572" width="24" height="24" transform="rotate(0,848,584)"/><rect x="836" y="596" width="24" height="24" transform="rotate(0,848,608)"/><path d="M 836 620v 24h 12a 12 12, 0, 0, 0, 0 -24" transform="rotate(90,848,632)"/><path d="M 836 716v 24h 24v -12a 12 12, 0, 0, 0, -12 -12" transform="rotate(0,848,728)"/><rect x="836" y="740" width="24" height="24" transform="rotate(0,848,752)"/><rect x="836" y="764" width="24" height="24" transform="rotate(0,848,776)"/><rect x="836" y="788" width="24" height="24" transform="rotate(0,848,800)"/><rect x="836" y="812" width="24" height="24" transform="rotate(0,848,824)"/><rect x="836" y="836" width="24" height="24" transform="rotate(0,848,848)"/><path d="M 836 908v 24h 24v -12a 12 12, 0, 0, 0, -12 -12" transform="rotate(0,848,920)"/><rect x="836" y="932" width="24" height="24" transform="rotate(0,848,944)"/><path d="M 860 308v 24h 24v -12a 12 12, 0, 0, 0, -12 -12" transform="rotate(0,872,320)"/><rect x="860" y="332" width="24" height="24" transform="rotate(0,872,344)"/><rect x="860" y="356" width="24" height="24" transform="rotate(0,872,368)"/><rect x="860" y="380" width="24" height="24" transform="rotate(0,872,392)"/><rect x="860" y="404" width="24" height="24" transform="rotate(0,872,416)"/><path d="M 860 428v 24h 12a 12 12, 0, 0, 0, 0 -24" transform="rotate(90,872,440)"/><rect x="860" y="476" width="24" height="24" transform="rotate(0,872,488)"/><rect x="860" y="548" width="24" height="24" transform="rotate(0,872,560)"/><path d="M 860 596v 24h 12a 12 12, 0, 0, 0, 0 -24" transform="rotate(0,872,608)"/><path d="M 860 812v 24h 24v -12a 12 12, 0, 0, 0, -12 -12" transform="rotate(0,872,824)"/><rect x="860" y="836" width="24" height="24" transform="rotate(0,872,848)"/><rect x="860" y="932" width="24" height="24" transform="rotate(0,872,944)"/><path d="M 884 260v 24h 12a 12 12, 0, 0, 0, 0 -24" transform="rotate(180,896,272)"/><path d="M 884 332v 24h 12a 12 12, 0, 0, 0, 0 -24" transform="rotate(0,896,344)"/><path d="M 884 404v 24h 12a 12 12, 0, 0, 0, 0 -24" transform="rotate(0,896,416)"/><path d="M 884 452v 24h 12a 12 12, 0, 0, 0, 0 -24" transform="rotate(-90,896,464)"/><rect x="884" y="476" width="24" height="24" transform="rotate(0,896,488)"/><path d="M 884 500v 24h 12a 12 12, 0, 0, 0, 0 -24" transform="rotate(90,896,512)"/><rect x="884" y="548" width="24" height="24" transform="rotate(0,896,560)"/><circle cx="896" cy="632" r="12" transform="rotate(0,896,632)"/><path d="M 884 668v 24h 12a 12 12, 0, 0, 0, 0 -24" transform="rotate(-90,896,680)"/><rect x="884" y="692" width="24" height="24" transform="rotate(0,896,704)"/><path d="M 884 716v 24h 12a 12 12, 0, 0, 0, 0 -24" transform="rotate(90,896,728)"/><path d="M 884 836v 24h 12a 12 12, 0, 0, 0, 0 -24" transform="rotate(0,896,848)"/><path d="M 884 908v 24h 12a 12 12, 0, 0, 0, 0 -24" transform="rotate(-90,896,920)"/><path d="M 884 932v 24h 24v -12a 12 12, 0, 0, 0, -12 -12" transform="rotate(90,896,944)"/><path d="M 908 260v 24h 24v -12a 12 12, 0, 0, 0, -12 -12" transform="rotate(0,920,272)"/><rect x="908" y="284" width="24" height="24" transform="rotate(0,920,296)"/><path d="M 908 308v 24h 12a 12 12, 0, 0, 0, 0 -24" transform="rotate(90,920,320)"/><path d="M 908 356v 24h 12a 12 12, 0, 0, 0, 0 -24" transform="rotate(180,920,368)"/><path d="M 908 476v 24h 12a 12 12, 0, 0, 0, 0 -24" transform="rotate(0,920,488)"/><path d="M 908 524v 24h 12a 12 12, 0, 0, 0, 0 -24" transform="rotate(-90,920,536)"/><rect x="908" y="548" width="24" height="24" transform="rotate(0,920,560)"/><circle cx="920" cy="608" r="12" transform="rotate(0,920,608)"/><path d="M 908 692v 24h 12a 12 12, 0, 0, 0, 0 -24" transform="rotate(0,920,704)"/><path d="M 908 740v 24h 12a 12 12, 0, 0, 0, 0 -24" transform="rotate(180,920,752)"/><path d="M 908 812v 24h 12a 12 12, 0, 0, 0, 0 -24" transform="rotate(180,920,824)"/><circle cx="920" cy="872" r="12" transform="rotate(0,920,872)"/><path d="M 932 284v 24h 12a 12 12, 0, 0, 0, 0 -24" transform="rotate(0,944,296)"/><path d="M 932 356v 24h 24v -12a 12 12, 0, 0, 0, -12 -12" transform="rotate(0,944,368)"/><path d="M 932 380v 24h 12a 12 12, 0, 0, 0, 0 -24" transform="rotate(90,944,392)"/><circle cx="944" cy="464" r="12" transform="rotate(0,944,464)"/><circle cx="944" cy="512" r="12" transform="rotate(0,944,512)"/><path d="M 932 548v 24h 12a 12 12, 0, 0, 0, 0 -24" transform="rotate(0,944,560)"/><circle cx="944" cy="632" r="12" transform="rotate(0,944,632)"/><path d="M 932 740v 24h 12a 12 12, 0, 0, 0, 0 -24" transform="rotate(0,944,752)"/><path d="M 932 812v 24h 24v -12a 12 12, 0, 0, 0, -12 -12" transform="rotate(0,944,824)"/><path d="M 932 836v 24h 12a 12 12, 0, 0, 0, 0 -24" transform="rotate(90,944,848)"/><circle cx="944" cy="944" r="12" transform="rotate(0,944,944)"/></clipPath><clipPath id="clip-path-corners-square-color-0-0"><path clip-rule="evenodd" d="M 68 128v 48a 60 60, 0, 0, 0, 60 60h 48a 60 60, 0, 0, 0, 60 -60v -48a 60 60, 0, 0, 0, -60 -60h -48a 60 60, 0, 0, 0, -60 60M 128 92h 48a 36 36, 0, 0, 1, 36 36v 48a 36 36, 0, 0, 1, -36 36h -48a 36 36, 0, 0, 1, -36 -36v -48a 36 36, 0, 0, 1, 36 -36" transform="rotate(0,152,152)"/></clipPath><clipPath id="clip-path-corners-dot-color-0-0"><circle cx="152" cy="152" r="36" transform="rotate(0,152,152)"/></clipPath><clipPath id="clip-path-corners-square-color-1-0"><path clip-rule="evenodd" d="M 788 128v 48a 60 60, 0, 0, 0, 60 60h 48a 60 60, 0, 0, 0, 60 -60v -48a 60 60, 0, 0, 0, -60 -60h -48a 60 60, 0, 0, 0, -60 60M 848 92h 48a 36 36, 0, 0, 1, 36 36v 48a 36 36, 0, 0, 1, -36 36h -48a 36 36, 0, 0, 1, -36 -36v -48a 36 36, 0, 0, 1, 36 -36" transform="rotate(90,872,152)"/></clipPath><clipPath id="clip-path-corners-dot-color-1-0"><circle cx="872" cy="152" r="36" transform="rotate(90,872,152)"/></clipPath><clipPath id="clip-path-corners-square-color-0-1"><path clip-rule="evenodd" d="M 68 848v 48a 60 60, 0, 0, 0, 60 60h 48a 60 60, 0, 0, 0, 60 -60v -48a 60 60, 0, 0, 0, -60 -60h -48a 60 60, 0, 0, 0, -60 60M 128 812h 48a 36 36, 0, 0, 1, 36 36v 48a 36 36, 0, 0, 1, -36 36h -48a 36 36, 0, 0, 1, -36 -36v -48a 36 36, 0, 0, 1, 36 -36" transform="rotate(-90,152,872)"/></clipPath><clipPath id="clip-path-corners-dot-color-0-1"><circle cx="152" cy="872" r="36" transform="rotate(-90,152,872)"/></clipPath></defs><rect x="0" y="0" height="1024" width="1024" clip-path="url('#clip-path-background-color')" fill="color(display-p3 1 1 1)"/><rect x="0" y="0" height="1024" width="1024" clip-path="url('#clip-path-dot-color')" fill="#020617"/><rect x="68" y="68" height="168" width="168" clip-path="url('#clip-path-corners-square-color-0-0')" fill="#020617"/><rect x="116" y="116" height="72" width="72" clip-path="url('#clip-path-corners-dot-color-0-0')" fill="#020617"/><rect x="788" y="68" height="168" width="168" clip-path="url('#clip-path-corners-square-color-1-0')" fill="#020617"/><rect x="836" y="116" height="72" width="72" clip-path="url('#clip-path-corners-dot-color-1-0')" fill="#020617"/><rect x="68" y="788" height="168" width="168" clip-path="url('#clip-path-corners-square-color-0-1')" fill="#020617"/><rect x="116" y="836" height="72" width="72" clip-path="url('#clip-path-corners-dot-color-0-1')" fill="#020617"/></svg>